<svg width="414" height="414" viewBox="0 0 414 414" fill="none" xmlns="http://www.w3.org/2000/svg">
<path d="M248.4 165.6H165.6V248.4H248.4V165.6Z" fill="#323232"/>
<path d="M207.018 239.72C225.777 239.72 240.985 224.704 240.985 206.179C240.985 187.655 225.777 172.638 207.018 172.638C188.259 172.638 173.052 187.655 173.052 206.179C173.052 224.704 188.259 239.72 207.018 239.72Z" fill="#92A65F"/>
<mask id="mask0_6_180" style="mask-type:alpha" maskUnits="userSpaceOnUse" x="165" y="206" width="84" height="43">
<path d="M248.4 206.892H165.6V248.292H248.4V206.892Z" fill="white"/>
</mask>
<g mask="url(#mask0_6_180)">
<path d="M248.4 206.892H165.6V248.292H248.4V206.892Z" fill="#F9C920"/>
<path d="M206.98 240.374C225.718 240.374 240.908 225.372 240.908 206.866C240.908 188.36 225.718 173.358 206.98 173.358C188.242 173.358 173.052 188.36 173.052 206.866C173.052 225.372 188.242 240.374 206.98 240.374Z" fill="#FAF9F9"/>
</g>
<path d="M413.8 412.8V330H331V412.8H413.8Z" fill="#323232"/>
<path d="M338.877 371.407C338.877 390.166 353.894 405.374 372.418 405.374C390.943 405.374 405.96 390.166 405.96 371.407C405.96 352.648 390.943 337.441 372.418 337.441C353.894 337.441 338.877 352.648 338.877 371.407Z" fill="#92A65F"/>
<mask id="mask1_6_180" style="mask-type:alpha" maskUnits="userSpaceOnUse" x="331" y="330" width="42" height="83">
<path d="M372.4 412.8V330H331V412.8H372.4Z" fill="white"/>
</mask>
<g mask="url(#mask1_6_180)">
<path d="M372.4 412.8V330H331V412.8H372.4Z" fill="#F9C920"/>
<path d="M338.872 371.374C338.872 390.112 353.874 405.302 372.38 405.302C390.886 405.302 405.888 390.112 405.888 371.374C405.888 352.636 390.886 337.446 372.38 337.446C353.874 337.446 338.872 352.636 338.872 371.374Z" fill="#FAF9F9"/>
</g>
<path d="M248.8 330.8H166V248H248.8V330.8Z" fill="#FAF9F9"/>
<path d="M248.715 321.278V270.855C248.715 258.279 238.521 248.085 225.945 248.085H175.522C175.522 288.508 208.292 321.278 248.715 321.278Z" fill="#92A65F"/>
<path d="M234.733 254.21C238.333 254.21 241.252 257.129 241.252 260.729C241.252 264.329 238.333 267.248 234.733 267.248C231.133 267.248 228.214 264.329 228.214 260.729C228.214 257.129 231.133 254.21 234.733 254.21Z" fill="#DCDE9F"/>
<path d="M331.2 248.4V165.6L414 165.6V248.4H331.2Z" fill="#446129"/>
<path d="M331.429 248.171C377.032 248.171 414 211.203 414 165.6V165.6C368.397 165.6 331.429 202.568 331.429 248.171Z" fill="#DCDE9F"/>
<path d="M414 165.6V82.8L331.2 82.8V165.6H414Z" fill="#446129"/>
<path d="M414 89.838V158.686H372.714C353.703 158.686 338.291 143.273 338.291 124.262C338.291 105.25 353.703 89.838 372.714 89.838L414 89.838Z" fill="#F9C920"/>
<path d="M331.2 82.8V0L414 0V82.8L331.2 82.8Z" fill="#92A65F"/>
<path d="M379.004 41.2856C379.004 44.8859 376.086 47.8044 372.486 47.8044C368.885 47.8044 365.967 44.8859 365.967 41.2856C365.967 37.6854 368.885 34.7668 372.486 34.7668C376.086 34.7668 379.004 37.6854 379.004 41.2856Z" fill="#DCDE9F"/>
<path d="M165.6 0H248.4V82.8H165.6V0Z" fill="#446129"/>
<path d="M248.4 0C248.4 45.7292 211.329 82.8 165.6 82.8C165.6 37.0708 202.671 0 248.4 0Z" fill="#92A65F"/>
<path d="M248.4 82.8H165.6V165.6H248.4V82.8Z" fill="#92A65F"/>
<path d="M207.114 147.759C220.315 147.759 231.017 137.058 231.017 123.857C231.017 110.656 220.315 99.9547 207.114 99.9547C193.914 99.9547 183.212 110.656 183.212 123.857C183.212 137.058 193.914 147.759 207.114 147.759Z" fill="#FAF9F9"/>
<path d="M207.557 123.695H213.633V124.358H207.557V130.376H206.791V124.358H200.824V123.695H206.791V117.567H207.557V123.695Z" fill="#92A65F"/>
<path d="M331.2 0H248.4V82.8H331.2V0Z" fill="#446129"/>
<path d="M165.6 0H82.8V82.8H165.6V0Z" fill="#446129"/>
<path d="M89.838 0H158.686V41.2856C158.686 60.2973 143.273 75.7094 124.262 75.7094C105.25 75.7094 89.838 60.2973 89.838 41.2856V0Z" fill="#F9C920"/>
<path d="M82.8 0H0V82.8H82.8V0Z" fill="#92A65F"/>
<path d="M41.2856 47.8044C44.8859 47.8044 47.8044 44.8859 47.8044 41.2856C47.8044 37.6854 44.8859 34.7668 41.2856 34.7668C37.6854 34.7668 34.7668 37.6854 34.7668 41.2856C34.7668 44.8859 37.6854 47.8044 41.2856 47.8044Z" fill="#DCDE9F"/>
<path d="M331.2 82.8H248.4V165.6H331.2V82.8Z" fill="#323232"/>
<path d="M289.686 130.604C293.286 130.604 296.204 127.686 296.204 124.086C296.204 120.485 293.286 117.567 289.686 117.567C286.085 117.567 283.167 120.485 283.167 124.086C283.167 127.686 286.085 130.604 289.686 130.604Z" fill="#F9C920"/>
<path d="M83 165L83 247.8H165.8V165H83Z" fill="#92A65F"/>
<path d="M165.8 165H124.4C101.535 165 83 183.535 83 206.4V247.8C128.729 247.8 165.8 210.729 165.8 165Z" fill="#446129"/>
<path d="M165.6 82.8H82.8V165.6H165.6V82.8Z" fill="#F9C920"/>
<path d="M331.2 165.6H248.4V248.4H331.2V165.6Z" fill="#446129"/>
<path d="M248.4 165.6C248.4 211.329 285.471 248.4 331.2 248.4C331.2 202.671 294.129 165.6 248.4 165.6Z" fill="#92A65F"/>
<path d="M331 330.8H413.8V248H331V330.8Z" fill="#446129"/>
<path d="M413.8 330.8C413.8 285.071 376.729 248 331 248C331 293.729 368.071 330.8 413.8 330.8Z" fill="#FAF9F9"/>
<mask id="mask2_6_180" style="mask-type:alpha" maskUnits="userSpaceOnUse" x="248" y="248" width="83" height="83">
<path d="M248 248V330.8H330.8V248H248Z" fill="white"/>
</mask>
<g mask="url(#mask2_6_180)">
<path d="M248 248V330.8H330.8V248H248Z" fill="#DCDE9F"/>
<path d="M352.072 248.114C352.072 236.429 342.599 226.957 330.914 226.957C319.229 226.957 309.757 236.429 309.757 248.114C309.757 259.799 319.229 269.272 330.914 269.272C342.599 269.272 352.072 259.799 352.072 248.114Z" fill="#FAF9F9"/>
<path d="M269.043 330.914C269.043 319.229 259.571 309.757 247.886 309.757C236.201 309.757 226.728 319.229 226.728 330.914C226.728 342.599 236.201 352.072 247.886 352.072C259.571 352.072 269.043 342.599 269.043 330.914Z" fill="#FAF9F9"/>
</g>
<path d="M82.8 82.8V165.6H-1.3113e-05V82.8H82.8Z" fill="#FAF9F9"/>
<path d="M82.8 105.57V165.6C37.0708 165.6 -1.3113e-05 128.529 -1.3113e-05 82.8H60.03C72.6055 82.8 82.8 92.9945 82.8 105.57Z" fill="#DCDE9F"/>
</svg>
