<svg xmlns="http://www.w3.org/2000/svg" viewBox="0 0 500 500"><g id="freepik--Floor--inject-226"><polygon points="39.13 450.96 91.85 450.72 144.56 450.63 250 450.46 355.44 450.63 408.15 450.72 460.87 450.96 408.15 451.2 355.44 451.29 250 451.46 144.56 451.29 91.85 451.2 39.13 450.96" style="fill:#263238"></polygon></g><g id="freepik--Plant--inject-226"><path d="M86.69,337.59a90.82,90.82,0,0,1,2.14-15c1.06-4.45,2.56-9,5.37-12.68,2.57-3.36,6.25-6,10.53-6.57,4.13-.5,8,1.34,11.09,3.94,3.82,3.22,6.75,7.48,9.5,11.61a142.54,142.54,0,0,1,8.2,14.36c.09.17-.16.3-.24.14a90,90,0,0,0-7.34-12,76,76,0,0,0-8.45-10.23c-2.84-2.76-6.43-5.35-10.54-5.48s-7.85,2.16-10.31,5.31c-2.74,3.52-4.14,7.91-5.19,12.19a91.09,91.09,0,0,0-2.11,14.32c-.81,9.91-1,19.88-1.25,29.81q-.2,8.43-.26,16.87c0,2.85,0,5.7-.07,8.55a51.5,51.5,0,0,1-.33,8.24c-.09.55-1,.5-1.09,0a48.38,48.38,0,0,1-.37-7.81c0-2.7-.08-5.4-.1-8.1q-.08-7.87-.06-15.75C85.84,358.69,86,348.11,86.69,337.59Z" style="fill:#263238"></path><path d="M100.84,330.12c.53-2.8,1.48-6.45,3.07-8.62,2.87-3.9,6-2.2,3.11,2.11a25.83,25.83,0,0,0-4,10.65s4.82,6.89,10.64,10.28c-.25-2.64-1-6.72-.48-10.65,1.12-8.5,6.26-8,5-1.27-1,5.42-1.44,11.18-1.16,13.67a28.4,28.4,0,0,0,6.22,3c-.34-1-.69-2.17-1.08-3.6-2.07-7.63,3-10,3.18-5.72a59.61,59.61,0,0,0,2,10.82c2.79.94,5.1,1.58,6.52,2.08a23.74,23.74,0,0,1,9.54,6.52,30,30,0,0,0,6.5-8.42c-1.78-1.53-4.59-3.8-8.49-6.56-7.31-5.16-4.77-11.68,1-7.63,4.19,2.93,7.43,8.35,8.9,11.13a45.2,45.2,0,0,0,3.32-15.23c-5.74-5.39-19.95-12.9-15.67-12.9,3.86,0,12.48,5.65,15.64,7.83a41.7,41.7,0,0,0-.48-4.43c-5.42-3.55-23-9.06-20.2-10.65,3.08-1.74,15.35,3.94,19.06,5.74a22.08,22.08,0,0,0-3.25-6.73c-7.48-10-21-13.46-26.84-11.55-4.16,1.35-3,11.91-3.84,11.55C102.3,304.86,94.7,309.61,100.84,330.12Zm41-1.15c1.18-1.44,6.67,2.78,5.09,5.08S140.3,330.8,141.83,329Zm-28.67-9c1.44.92-.69,6.25-2.92,4.64C108.35,323.22,111.7,319,113.16,320Z" style="fill:#F9C920"></path><path d="M115.35,321.6c.75-1.5,1.54-3,2.4-4.41a25.71,25.71,0,0,1,2.76-4l-.71-.88c-.1-.12.07-.28.17-.17.28.32.55.65.82,1a.32.32,0,0,1,.12.14c1,1.24,2,2.52,2.93,3.82a42.84,42.84,0,0,1,4.86,1.4c1.64.55,3.26,1.12,4.86,1.8.17.07.08.34-.08.27-1.58-.7-3.18-1.38-4.82-1.93s-3.12-.93-4.69-1.37c.51.72,1,1.45,1.49,2.18a58.65,58.65,0,0,1,8.59,3.51c2.9,1.37,5.69,3,8.47,4.58.16.09,0,.34-.15.24-2.72-1.62-5.56-3-8.43-4.36-2.69-1.26-5.47-2.29-8.18-3.49,6.83,10.66,10.92,22.95,16.39,34.33.08.17-.17.31-.24.14-1.67-4-3.6-7.88-5.42-11.81-1.63-3.52-3.23-7.07-4.86-10.59-.48-1-1-2.06-1.48-3.09.3,5.69.18,11.48,1.11,17.1a.14.14,0,1,1-.28,0c-.39-6.08-1.46-12.06-1.42-18.18,0,0,0-.05,0-.08-1.16-2.32-2.4-4.62-3.73-6.85-2.26,5.33-4.64,10.73-5.7,16.45,0,.18-.32.1-.27-.08,1.54-5.73,3-11.47,5.73-16.77a63.85,63.85,0,0,0-4.81-6.93c-.76,1.41-1.73,2.75-2.59,4.1s-1.68,2.66-2.45,4a57.18,57.18,0,0,0-4.27,9c-.07.18-.35.09-.28-.08C112.53,327.59,113.86,324.54,115.35,321.6Z" style="fill:#263238"></path><path d="M61.53,334.55c4.38-4.39,9.47-10.16,16.24-10.15,6.54,0,11.35,5.27,14.11,10.7,2.89,5.68,3.93,12.11,4.74,18.36A224.2,224.2,0,0,1,98.36,376c.12,4.19.1,8.39,0,12.58a84.12,84.12,0,0,1-1,12.69c-.13.67-1.21.7-1.25,0-.2-3.53-.06-7.08,0-10.61s0-7-.16-10.43c-.26-7-.77-14.05-1.6-21-.72-6.1-1.29-12.38-3.12-18.28-1.64-5.31-4.73-11.4-10.12-13.73-7.36-3.19-14.55,2.63-19.36,7.55C61.62,334.86,61.4,334.68,61.53,334.55Z" style="fill:#263238"></path><path d="M39.17,344.37h0c0,.9.09,1.78.15,2.65a15.93,15.93,0,0,1,7.18-3c6.22-.66,5.82,4.07,1.67,4.26A23.82,23.82,0,0,0,39.64,350c1,8.21,3.27,14.82,3.61,14.9a119.47,119.47,0,0,0,16.43-2.07c-1.55-3.3-5.07-7.68-3.28-8s3.76,3.54,4.76,7.73a78.92,78.92,0,0,0,12-3.29c-2.74-2.37-7-5.32-5.35-6.57s5,2.89,7,5.91a24.14,24.14,0,0,0,5.17-2.88c-3.69-5.42-12.67-6.52-11.5-10.43s9.58,1.51,13.35,8.76c4.43-4.59,5.73-11.1,5.26-16.66-3.86-.44-11.28.37-10.75-2.4s5.91-2.25,10.3-.63a15.31,15.31,0,0,0-2.58-6.1c-4.07-5.23-16.48,1.41-16.48,1.41s1.33-12.47-3.41-14.63c-2.73-1.24-7.54-1.23-12.37,1.61,2.71.23,6,1.09,7.3,3,1.68,2.4-1,3.7-2.66,2.59C55.18,321.44,53,319,49,318.64a24.94,24.94,0,0,0-4.48,5c-.46.64-.88,1.32-1.31,2.06a17.07,17.07,0,0,1,14.53.26c5.39,2.67,2.38,8.26-2.25,6.09s-9-4.3-13.95-3.07a34.74,34.74,0,0,0-2.36,13.91,24.35,24.35,0,0,1,8-3.83c5.35-1.4,7,1.8,1.09,2.39A23.64,23.64,0,0,0,39.17,344.37Zm6.51-8.59c-.37-1.73,3.43-2.23,4.06-.83C50.27,336.15,46,337.51,45.68,335.78Zm32.47,9.6c.36-.95,2.89.13,2.66,1.31C80.5,348.26,77.8,346.32,78.15,345.38Zm-17.93,6.08c1.85-.74,4.74,3.86,2.73,4.92S58.71,352.07,60.22,351.46Z" style="fill:#F9C920"></path><path d="M44,364c2.79-4.66,5.55-9.35,8.48-13.93,1.36-2.13,2.79-4.22,4.27-6.27-.22,0-.45-.11-.66-.16L55,343.42c-.86-.15-1.72-.27-2.59-.36s-1.63-.13-2.45-.14a12,12,0,0,0-2.61.14c-.11,0-.12-.14,0-.14.88,0,1.77-.08,2.64-.09s1.7,0,2.54.06,1.59.13,2.37.25c.44.06.87.14,1.3.23a7.37,7.37,0,0,1,.79.16c1.51-2.08,3.07-4.11,4.7-6.11a56.23,56.23,0,0,0-15.27-4.87c-.09,0-.05-.15,0-.13a51.73,51.73,0,0,1,15.49,4.69l2.69-3.27c1-1.21,2.09-2.39,3-3.68.06-.09.18,0,.11.08a55.13,55.13,0,0,0-3.54,4.33h0a52.74,52.74,0,0,1,5.68,4.56q2.78,2.46,5.42,5.09c.06.06,0,.16-.1.1-1.74-1.73-3.54-3.38-5.42-4.94s-3.87-3-5.77-4.56c0,0,0,0,0,0-.43.58-.86,1.15-1.3,1.71l-.66.86,0,.06c-.73.94-1.45,1.89-2.17,2.84a23.09,23.09,0,0,1,2.16,3.89c.62,1.32,1.17,2.67,1.67,4a59.85,59.85,0,0,1,2.32,8.74c0,.09-.12.13-.13,0a51.39,51.39,0,0,0-2.54-8.57c-.54-1.42-1.16-2.81-1.8-4.2s-1.28-2.47-1.82-3.75c-.63.84-1.25,1.67-1.86,2.51l-.52.74c0,.06,0,.13-.06.13h0c-1.92,2.67-3.74,5.41-5.52,8.18a2.52,2.52,0,0,1,.25.61c.11.33.22.67.32,1a19,19,0,0,1,.48,2.08c.12.66.22,1.32.28,2a16.81,16.81,0,0,0,.17,2.26.07.07,0,1,1-.14,0,7.44,7.44,0,0,0-.15-2.1c-.1-.72-.24-1.44-.4-2.15s-.33-1.28-.52-1.91c-.09-.31-.2-.62-.3-.94-.06-.16-.14-.34-.2-.51Q50.2,354.3,49,356.27l-4.8,7.83C44.1,364.23,43.89,364.12,44,364Z" style="fill:#263238"></path><path d="M87,399.79c.07-2.64.49-5.3.77-7.93s.59-5.28.87-7.92c.54-5.09.85-10.29,2-15.28a22.16,22.16,0,0,1,6.22-11.42,10.13,10.13,0,0,1,6.1-2.91,10.53,10.53,0,0,1,6.47,2,22.68,22.68,0,0,1,5.44,5.74,54.67,54.67,0,0,1,4.24,6.89c.05.09-.09.15-.14.06a35.43,35.43,0,0,0-9.18-10.29,10.9,10.9,0,0,0-5.79-2.41,7.88,7.88,0,0,0-5.61,2.24c-3.08,2.68-4.87,6.62-5.93,10.49-1.26,4.58-1.67,9.41-2.29,14.11-.38,2.8-.73,5.59-1.1,8.39s-.6,5.63-1.19,8.38A.46.46,0,0,1,87,399.79Z" style="fill:#263238"></path><path d="M100,379.27a14.73,14.73,0,0,0,2.87,2.94c-.44-2.58-1-7.16.34-9.6,2-3.79,4.41-1.9,3.21,1.39a26.88,26.88,0,0,0-2,9.34,41,41,0,0,0,8.78,4.14,14.72,14.72,0,0,1-.29-4.52c.41-4,3.51-4,2.7.24a25.52,25.52,0,0,0-.42,4.95,91.91,91.91,0,0,0,13.67,3.08,40.15,40.15,0,0,0,5.67-10.08c-3.3-.82-10-1-9.83-3.36.19-3.17,6.65-.73,10.43,1.56a25.09,25.09,0,0,0,1.15-8.52,42,42,0,0,0-9.09-1.51c-6.79-.59-6.46-4.43-1.54-4.34,3.63.06,8.22,2.28,10.4,3.44-1.42-9.23-8.46-15.15-14.11-15.38-9.49-.38-6.08,11.43-6.08,11.43s-6.43-4.52-12.5-4.4S93.48,370.24,100,379.27Zm25.35-17.08c-.21-1.32,4-1.64,4.24.06C129.83,364.17,125.54,363.55,125.33,362.19Zm6.81,13.86c-.08-.87,1.75-1,2.16.08C134.58,376.84,132.22,376.91,132.14,376.05Zm-22.79.81c1.43.2,2.25,5.32-.22,5.22C107.25,382,108.14,376.69,109.35,376.86Z" style="fill:#F9C920"></path><path d="M111.33,382.54c.24-.63.45-1.28.65-1.93a20.28,20.28,0,0,0-.47,2C111.48,382.72,111.28,382.67,111.33,382.54Z" style="fill:#263238"></path><path d="M113.84,374.32c.44-1.31.94-2.61,1.45-3.89.27-.69.55-1.37.86-2.05a8.23,8.23,0,0,1,.84-1.71,14.55,14.55,0,0,1-.77-1.66c0-.05,0-.09.09-.05a21,21,0,0,1,1.85,2.87l.77,1.35a12.11,12.11,0,0,1,1.6.25c.57.1,1.14.22,1.7.35l1.69.39c.56.13,1.12.32,1.69.41.13,0,.07.22,0,.17a11.92,11.92,0,0,0-1.78-.46c-.54-.12-1.09-.21-1.64-.29s-1.11-.15-1.66-.2-.84-.07-1.26-.11c.23.4.47.8.69,1.2a1.74,1.74,0,0,0,.1.19,5.27,5.27,0,0,1,1.36.16c.49.09,1,.18,1.47.29,1,.22,2,.45,3,.72,2,.58,4.08,1.23,6.11,1.9.11,0,0,.2-.07.17a59.43,59.43,0,0,0-6.14-1.71c-1-.22-1.94-.44-2.91-.64l-1.47-.31a10.84,10.84,0,0,1-1.13-.25c1,1.93,2,3.89,2.93,5.89,2,4.35,3.63,8.84,5.31,13.31.05.11-.13.18-.16.07a122.94,122.94,0,0,0-5.66-13c-.38-.78-.77-1.54-1.15-2.31,0,.15-.07.31-.1.47-.1.53-.19,1.05-.28,1.58-.18,1.06-.36,2.12-.52,3.18a36.78,36.78,0,0,0-.76,6.6c0,.14-.21.13-.19,0,.17-1.05.17-2.15.24-3.21s.15-2.22.28-3.33.26-2.13.44-3.19c.08-.53.18-1.06.27-1.59a3.1,3.1,0,0,1,.3-1.14c-.55-1.12-1.11-2.24-1.67-3.35s-1.06-2.08-1.6-3.12c-.23-.44-.48-.88-.72-1.33a13,13,0,0,1-.63,1.6l-.74,1.8c-.54,1.32-1,2.66-1.55,4-.72,1.9-1.51,3.84-2.1,5.82C112.7,378.21,113.19,376.23,113.84,374.32Z" style="fill:#263238"></path><path d="M112,380.61c0-.16.09-.31.14-.46C112.07,380.3,112,380.46,112,380.61Z" style="fill:#263238"></path><polygon points="75.52 394.43 76.05 408.56 77.41 444.98 107.3 444.98 108.67 408.56 109.2 394.43 75.52 394.43" style="fill:#37474f"></polygon><polygon points="75.52 394.43 76.05 408.56 108.67 408.56 109.2 394.43 75.52 394.43" style="fill:#263238"></polygon><rect x="73.39" y="388.72" width="37.93" height="11.43" transform="translate(184.71 788.86) rotate(180)" style="fill:#37474f"></rect><rect x="99.63" y="444.98" width="5.25" height="5.98" style="fill:#37474f"></rect><rect x="99.63" y="444.98" width="5.25" height="2.99" style="fill:#263238"></rect><rect x="79.83" y="444.98" width="5.24" height="5.98" style="fill:#37474f"></rect><rect x="79.83" y="444.98" width="5.24" height="2.99" style="fill:#263238"></rect></g><g id="freepik--Character--inject-226"><polygon points="248.98 312.48 251.68 331.91 269.97 450.46 272.92 450.46 259.61 331.91 257.65 312.48 248.98 312.48" style="fill:#dbdbdb"></polygon><polygon points="257.65 312.48 248.98 312.48 251.68 331.91 259.61 331.91 257.65 312.48" style="fill:#a6a6a6"></polygon><polygon points="191.53 450.46 194.48 450.46 212.78 331.91 215.47 312.48 206.8 312.48 204.84 331.91 191.53 450.46" style="fill:#dbdbdb"></polygon><polygon points="206.8 312.48 204.84 331.91 212.78 331.91 215.47 312.48 206.8 312.48" style="fill:#a6a6a6"></polygon><polygon points="136.67 450.46 139.62 450.46 157.91 331.91 160.61 312.48 151.94 312.48 149.97 331.91 136.67 450.46" style="fill:#dbdbdb"></polygon><polygon points="149.97 331.91 157.91 331.91 160.61 312.48 151.94 312.48 149.97 331.91" style="fill:#a6a6a6"></polygon><polygon points="141.35 320.08 275.38 320.08 275.38 305.96 225.2 305.96 208.34 207.85 146.46 207.85 141.35 320.08" style="fill:#dbdbdb"></polygon><polygon points="141.35 320.08 148.65 320.08 153.42 207.85 146.46 207.85 141.35 320.08" style="fill:#a6a6a6"></polygon><path d="M273.51,446.09c-2.68.3-76.21-15.83-78.56-18.17-.29-.26,1-6.94,3-16.05l0-.18c1.21-5.78,21.71-52.69,21.71-52.69l47.7,12.39L246.59,415s9,6.29,16.82,12.27c0,0,0,0,0,0,4.8,3.67,8.94,7,9.82,8.06C275.53,438.12,276.19,445.8,273.51,446.09Z" style="fill: rgb(235, 148, 129);"></path><path d="M273.51,446.08c-2.68.31-76.21-15.83-78.56-18.16-.29-.26,1-6.93,3-16.05l0-.17c.44-2.16,3.59-10,7.34-19.07,7.85,2,36,9,46.2,12L246.6,415s9,6.29,16.81,12.27v0c4.8,3.68,8.94,7,9.82,8.06C275.53,438.13,276.2,445.81,273.51,446.08Z" style="fill:#ebebeb"></path><path d="M273.76,446.43C271,446.72,197.41,430.38,195,428c-.92-.91.5-12.5,4.29-24.82l47.43,10.59s24.46,18.66,26.82,21.57S276.52,446.14,273.76,446.43Z" style="fill:#a6a6a6"></path><path d="M195,428c1.61,1.6,35.08,9.43,57.88,14.37,11.28,2.44,20,4.17,20.87,4.07,2.77-.29,2.14-8.19-.21-11.1-.89-1.09-4.9-4.42-9.57-8.15-7.74-6.17-17.25-13.43-17.25-13.43l-47.44-10.58C195.5,415.49,194.08,427.09,195,428Z" style="fill:#F9C920"></path><path d="M252.88,442.36c11.28,2.44,20,4.17,20.87,4.07,2.77-.29,2.14-8.19-.21-11.1-.89-1.09-4.9-4.42-9.57-8.15Z" style="opacity:0.1"></path><path d="M273.36,443.25c-12.27-3-62-14.15-74.39-16.22-.1,0-.12.05,0,.08,12.09,3.28,61.95,14,74.36,16.35C273.58,443.51,273.62,443.32,273.36,443.25Z" style="fill:#263238"></path><path d="M269.39,431.64a10.12,10.12,0,0,0-8,1.37,9.81,9.81,0,0,0-4.22,6c0,.08.12.11.15,0a11.72,11.72,0,0,1,12.08-7.23A.08.08,0,1,0,269.39,431.64Z" style="fill:#263238"></path><path d="M250.31,415.86c-4.92-1.17-11-.7-15,2.66-.16.13,0,.35.19.3a70.1,70.1,0,0,1,14.75-2.34A.31.31,0,0,0,250.31,415.86Z" style="fill:#263238"></path><path d="M253.79,418.19c-4.92-1.17-11-.69-15,2.66-.16.13,0,.35.19.3a70.75,70.75,0,0,1,14.75-2.34A.31.31,0,0,0,253.79,418.19Z" style="fill:#263238"></path><path d="M257.28,420.52c-4.93-1.16-11-.69-15,2.66-.16.13,0,.35.2.31a69.25,69.25,0,0,1,14.75-2.34A.32.32,0,0,0,257.28,420.52Z" style="fill:#263238"></path><path d="M260.76,422.85c-4.93-1.16-11-.69-15,2.67-.15.13,0,.34.2.3a69.89,69.89,0,0,1,14.75-2.34A.32.32,0,0,0,260.76,422.85Z" style="fill:#263238"></path><path d="M248.06,416l-50.63-12.6S242.71,304,239,299c-1.83-2.49-49.09-3.78-64-16.72-19.33-16.8-5.93-42-5.93-42l52.82-.94s-.77,11,1.27,12.73c1.34,1.12,64.19,7.17,70.84,28.48C302.23,306.75,248.06,416,248.06,416Z" style="fill:#263238"></path><path d="M250.28,405.33a30.76,30.76,0,0,0-4.16-1.49c-1.47-.48-3-1-4.43-1.42q-4.37-1.35-8.77-2.54c-5.93-1.6-11.86-3.16-17.83-4.6-3.11-.75-9.77-2.38-10.18-2.31-.2,0-.24.36-.06.42,5.77,2,11.63,3.67,17.49,5.38s11.7,3.38,17.62,4.8c1.64.39,3.29.74,4.94,1.11a35.74,35.74,0,0,0,5.24,1.05C250.31,405.75,250.47,405.42,250.28,405.33Z" style="fill:#37474f"></path><path d="M248.13,294.77c-1-.93-2.65-1-4-1.29q-11.41-2.06-22.82-4.11c-7.12-1.28-14.27-2.44-21.36-3.89-5.86-1.21-11.82-2.81-16.86-6.06A24.51,24.51,0,0,1,172.9,265.7a43.84,43.84,0,0,1-1.14-17.44c.15-1.42.43-2.83.71-4.23,0-.1-.15-.14-.17,0-2.06,10.81-2.38,23.37,5.63,32.1,3.9,4.25,9.3,6.79,14.82,8.46,6.23,1.88,12.75,2.81,19.16,4l22.82,4.09c3.66.66,7.38,1.18,11,2a3.77,3.77,0,0,1,2,.91,2.83,2.83,0,0,1,.29,2.64c-.39,1.8-.89,3.57-1.43,5.32-4.33,14.17-35.28,81.44-36.12,83a.15.15,0,0,0,.26.14c7.14-12.39,30.17-64.31,34.95-77.7a85,85,0,0,0,3.12-10.43C249.06,297.17,249.23,295.73,248.13,294.77Z" style="fill:#37474f"></path><path d="M349,450.19c-2.57.83-77.84-.34-80.61-2.16-.33-.2-.37-7-.27-16.33v-.18c.05-5.9-1.16-56.37-1.16-56.37l47.11.17L316.42,425s10.11,4.36,18.92,8.68c0,0,0,0,0,0,5.43,2.64,10.14,5.06,11.22,5.94C349.39,442,351.57,449.38,349,450.19Z" style="fill: rgb(235, 148, 129);"></path><path d="M349,450.19c-2.57.83-77.84-.34-80.61-2.17-.34-.18-.37-7-.27-16.31v-.18c0-.42,0-.84,0-1.26s0-.6,0-.9,0-.9,0-1.35c0-3.92-.18-10.29-.33-17.27l48,.26.66,14s10.11,4.37,18.92,8.68l0,0c5.43,2.65,10.15,5.07,11.22,5.95C349.39,442,351.57,449.38,349,450.19Z" style="fill:#ebebeb"></path><path d="M349.31,450.48c-2.65.83-78-.53-80.86-2.4-1.08-.7-2-12.34-.74-25.17l48.59.93s27.68,13.42,30.58,15.81S352,449.64,349.31,450.48Z" style="fill:#F9C920"></path><path d="M348.28,447.44c-12.63-.53-63.61-1.51-76.13-1.09-.1,0-.11.08,0,.08,12.5.81,63.49,1.38,76.13,1.22C348.54,447.65,348.55,447.45,348.28,447.44Z" style="fill:#263238"></path><path d="M342.08,436.85a10.11,10.11,0,0,0-7.61,2.95,9.83,9.83,0,0,0-3,6.69c0,.08.14.08.16,0a11.71,11.71,0,0,1,10.4-9.48C342.18,437,342.18,436.85,342.08,436.85Z" style="fill:#263238"></path><path d="M320.24,425.18c-5.05-.16-10.95,1.52-14.17,5.6-.12.16.11.33.26.26a69.48,69.48,0,0,1,14-5.23A.32.32,0,0,0,320.24,425.18Z" style="fill:#263238"></path><path d="M324.12,426.77c-5.06-.16-10.95,1.52-14.17,5.6-.12.16.1.33.25.26a70.32,70.32,0,0,1,14-5.23A.32.32,0,0,0,324.12,426.77Z" style="fill:#263238"></path><path d="M328,428.37c-5.05-.16-10.95,1.51-14.16,5.59-.13.16.1.34.25.26a70.09,70.09,0,0,1,14-5.23A.32.32,0,0,0,328,428.37Z" style="fill:#263238"></path><path d="M331.87,430c-5.06-.16-10.95,1.52-14.17,5.6-.12.15.1.33.26.25a70.23,70.23,0,0,1,14-5.23A.31.31,0,0,0,331.87,430Z" style="fill:#263238"></path><path d="M318.71,423.81l-51.83-.05s.86-97-3.24-102.38c-5.47-7.17-83.15-7.93-99.54-31.29-14.71-21-1.73-50.25-1.73-50.25l58.85-1.05a121.62,121.62,0,0,1-5.68,18.47s70.71,13.92,90.31,35.9C319.07,308,318.71,423.81,318.71,423.81Z" style="fill:#263238"></path><path d="M225.94,253.35a27.62,27.62,0,0,0-5,1.54c-1.69.62-3.37,1.33-5,2.11a99.14,99.14,0,0,0-9.37,5.15c-.09.06,0,.19.09.14,3.2-1.61,6.51-3.06,9.82-4.44l4.77-2a51.76,51.76,0,0,0,4.84-2.07C226.28,253.68,226.17,253.31,225.94,253.35Z" style="fill:#37474f"></path><path d="M222.58,238.79c-.7,2.67-1.32,5.37-2.12,8-.37,1.22-.73,2.46-1.21,3.64-.4,1-1,2.13-2.16,2.34-1.34.24-1.71-.91-1.59-2s.47-2.45.73-3.66c.29-1.39.59-2.78.86-4.18.14-.7.28-1.39.4-2.09,0-.18.18-1.52.28-1.9a.08.08,0,0,0,.08.06h0a.1.1,0,0,0,.09-.07.18.18,0,0,0-.07-.2.1.1,0,0,0-.12,0c-.26.14-.28.49-.37.74-.22.68-.45,1.36-.66,2-.38,1.28-.76,2.56-1.1,3.85s-.68,2.58-1,3.87a6.05,6.05,0,0,0-.29,3,2.26,2.26,0,0,0,2.08,1.74c0,.09-.1.17-.14.26-.12.26-.21.55-.31.82s-.2.55-.29.83a3.1,3.1,0,0,0-.08.42c0,.15,0,.3,0,.46s.29.39.41.15.18-.24.26-.37a3.62,3.62,0,0,0,.2-.45c.09-.26.17-.53.24-.8s.16-.55.21-.82a4.26,4.26,0,0,0,.06-.5,3,3,0,0,0,1.56-.57,5.22,5.22,0,0,0,1.63-2.43c.42-1.11.75-2.27,1.07-3.41a50,50,0,0,0,1.82-8.63A.25.25,0,0,0,222.58,238.79Z" style="fill:#37474f"></path><path d="M187.52,244.94c-.26,1.33-.43,2.68-.75,4s-.68,2.58-1.12,3.83A13.9,13.9,0,0,1,184,256.2a13.16,13.16,0,0,1-2.64,2.63,22.35,22.35,0,0,1-6.35,3.44,30.59,30.59,0,0,1-3.52,1c-.62.13-1.24.23-1.87.31a3.91,3.91,0,0,0-1.52.33.3.3,0,0,0,0,.52,5.44,5.44,0,0,0,2.78.12,20,20,0,0,0,3-.49,21.45,21.45,0,0,0,5.66-2.3,17.68,17.68,0,0,0,4.75-3.8,13.38,13.38,0,0,0,2.59-5.49,27.45,27.45,0,0,0,.91-7.49A.13.13,0,0,0,187.52,244.94Z" style="fill:#37474f"></path><path d="M274.36,356.23q-.63-12.54-1.78-25c-.19-2.06-.37-4.12-.6-6.17a19.3,19.3,0,0,0-1-4.69c-1.19-3.15-3.77-4.76-6.91-5.59-3.71-1-7.54-1.59-11.32-2.25s-7.73-1.28-11.6-1.87c-7.84-1.19-15.7-2.29-23.5-3.7a189.13,189.13,0,0,1-23-5.48c-6.93-2.18-14-4.86-19.53-9.75-11.85-10.52-12.08-27.92-10.44-42.45.23-2.05.51-4.1.78-6.15,0-.11-.15-.14-.16,0-1.05,8.19-2.25,16.42-1.53,24.68a40.33,40.33,0,0,0,6.31,19.21c4,5.86,9.95,9.69,16.4,12.39a129.78,129.78,0,0,0,22,6.61c15.48,3.44,31.31,5,46.9,7.87q2.88.53,5.75,1.12a23.13,23.13,0,0,1,5.19,1.46c3.53,1.62,4.47,5.09,4.86,8.67.93,8.3,1.52,16.65,2,25,1,16.8,1.45,33.68,1.22,50.51q0,3.12-.12,6.23c0,.19.28.17.29,0C275.24,389.92,275.22,373.07,274.36,356.23Z" style="fill:#37474f"></path><path d="M316.78,415.4a32.44,32.44,0,0,0-4.4-.42c-1.54-.11-3.09-.22-4.64-.29-3-.16-6.08-.28-9.13-.32-6.14-.1-12.27-.16-18.41-.09-3.19,0-10.05.08-10.44.24-.18.08-.14.42.05.43,6.08.51,12.17.72,18.27.94s12.17.41,18.26.34c1.69,0,3.38-.1,5.06-.14a36.6,36.6,0,0,0,5.34-.26C316.91,415.8,317,415.45,316.78,415.4Z" style="fill:#37474f"></path><path d="M267,375.15c.18-6.93.17-13.87.07-20.8s-.38-13.87-.84-20.81a80.43,80.43,0,0,0-1.32-10.39,11.64,11.64,0,0,0-.4-1.32,4,4,0,0,0-.37-.7,3.52,3.52,0,0,0-.54-.55,10.54,10.54,0,0,0-2.44-1.27,38.17,38.17,0,0,0-5-1.49,161.67,161.67,0,0,0-20.59-3.11c3.42.56,6.84,1.12,10.24,1.79s6.79,1.32,10.13,2.21a47.14,47.14,0,0,1,4.89,1.55,9.14,9.14,0,0,1,2.15,1.14,1.64,1.64,0,0,1,.58.83,8,8,0,0,1,.34,1.17,80.26,80.26,0,0,1,1.2,10.23c.55,6.89.8,13.82,1.1,20.74Z" style="fill:#37474f"></path><path d="M294.86,284.36a124.31,124.31,0,0,0-18.61-9.66c-6.42-2.77-13-5.14-19.64-7.37s-13.37-4.12-20.14-5.85-13.59-3.26-20.45-4.6c3.37.94,6.77,1.75,10.12,2.7s6.75,1.8,10.1,2.78c6.7,1.91,13.4,3.85,20,6.09s13.19,4.51,19.67,7.09q4.86,1.92,9.6,4.12C288.69,281.08,291.81,282.66,294.86,284.36Z" style="fill:#37474f"></path><path d="M206.32,176.91c8.54,20,23,44.76,31.46,48.76,6.82,3.22,39.94,5.12,41.75,5,4.46-.34,7.59-33.44,2.8-33.31-6.32.17-33.38,3.47-35.21,2.15s-14.22-13-28.22-26.54C209.24,163.6,201,164.47,206.32,176.91Z" style="fill: rgb(235, 148, 129);"></path><path d="M275.71,229.59c.56.17,8.65,2.57,13.47,3.08,3.6.38,14,1.19,14.8-2.73.56-2.67-5.49-3.87-9.76-4.81-2.24-.5-5.21-2.22-4.83-3.68.65-2.54,6.46-1.14,10.36.28,7.55,2.75,17.94,8.27,21.5,4.05,1.34-1.59-.92-3.65-4-5.51,4.84,1.95,9.88,3.35,11.45,1.64.89-1,.75-2.07-.05-3.2a3.11,3.11,0,0,0,3.26-1.13c1.15-1.73.07-3.8-1.88-5.76a1.72,1.72,0,0,0,1.14-1.07c2.17-5.11-15.17-15.54-20.58-15.84-15.91-.89-31.9,3.34-31.9,3.34C273.53,204.11,275.69,229.58,275.71,229.59Z" style="fill: rgb(235, 148, 129);"></path><path d="M295.63,211.52a26.28,26.28,0,0,1,10.88,2.1c4.32,1.86,7.42,4.39,11.21,6.82a.09.09,0,0,1-.1.15c-1.8-1.15-9.17-5.38-11.05-6.31a25.06,25.06,0,0,0-10.94-2.69C295.58,211.59,295.59,211.52,295.63,211.52Z" style="fill:#263238"></path><path d="M297.31,204.54a62.8,62.8,0,0,1,12.58,2c4.44,1.35,8.24,4.16,12,6.86,2.23,1.61,4.43,3.28,6.58,5,.09.07,0,.23-.09.16q-5.68-4.2-11.6-8a33.23,33.23,0,0,0-12-4.88c-2.45-.46-4.93-.73-7.41-1A0,0,0,1,1,297.31,204.54Z" style="fill:#263238"></path><path d="M300.58,198.11c4,.1,7.56.18,11.39,1.65,5.06,1.94,10.3,5.81,12.15,7.19,2,1.51,4,3.1,6,4.71.08.07,0,.21-.12.14a132.54,132.54,0,0,0-14-9.64,26.43,26.43,0,0,0-7.43-3.13,46.42,46.42,0,0,0-8-.89A0,0,0,0,1,300.58,198.11Z" style="fill:#263238"></path><path d="M280.29,196.57l-5.36,35.82s-35.12-3.11-40.66-8-22.4-31.55-27.89-46.55,2.89-13.35,11.06-6.85S247,198.44,247.61,198.7,280.29,196.57,280.29,196.57Z" style="fill:#F9C920"></path><path d="M268.3,225.51c.22-1.2.48-2.4.67-3.61q.6-3.77,1.19-7.55t1.14-7.56c.37-2.53.63-5.08,1-7.59a.09.09,0,1,0-.17,0c-.52,2.5-1.14,5-1.62,7.47s-.94,5.1-1.34,7.67-.75,5-1.08,7.57c-.16,1.27-.23,2.55-.36,3.82s-.28,2.46-.31,3.7a.07.07,0,0,0,.14,0C267.9,228.12,268.07,226.81,268.3,225.51Z" style="fill:#263238"></path><path d="M259.55,230.64c-10.19-1.39-22.22-3.55-25.28-6.24-5.55-4.87-22.4-31.54-27.89-46.54-2.61-7.12-2.09-10.49.05-11.36Z" style="opacity:0.1"></path><path d="M223.22,252.14l-66.93,3.29a7.5,7.5,0,0,1-1.34-5.9c3.49-16,18-63.34,40.6-81.62,4.82-3.89,12.87-2.26,16.51.08,1.82,1.17,6.86,10.38,8.31,18.58C221.5,193,226,230,226.18,245.75A7.64,7.64,0,0,1,223.22,252.14Z" style="fill:#F9C920"></path><path d="M200.86,246c7.77-.43,15.5-.86,23.23-1.2l-.39.55-2.84-12.68.28.34a9.55,9.55,0,0,1-3.78-3,16.34,16.34,0,0,1-2.35-4.25,27.76,27.76,0,0,1-1.39-4.66,36.87,36.87,0,0,1-.73-4.82l.46.43-18.34.74.37-.36-.44,3.08c-.17,1-.44,2-.65,3.05s-.62,2-.93,3l-.63,1.42c-.1.24-.2.48-.31.71l-.4.66a11.73,11.73,0,0,1-4.07,4.48,8.46,8.46,0,0,1-5.7,1.23l.2-.12-5.1,12.67Zm-18.74-11.53,0-.14.15,0a8.26,8.26,0,0,0,5.38-1.29,11.46,11.46,0,0,0,3.83-4.35l.36-.65c.11-.22.2-.46.3-.69l.59-1.38c.29-1,.62-1.92.86-2.91s.44-2,.59-3l.39-3,0-.35H195l18.33-.86.42,0,0,.45a35.15,35.15,0,0,0,.73,4.67,27.51,27.51,0,0,0,1.36,4.5,16.08,16.08,0,0,0,2.22,4,8.74,8.74,0,0,0,3.38,2.68l.23.1,0,.24,2.79,12.7.11.53-.5,0c-7.86.34-15.72.59-23.53.84l-23.25.75Z" style="opacity:0.1"></path><rect x="253.1" y="214.72" width="100.22" height="38.99" style="fill:#F9C920"></rect><rect x="253.1" y="214.72" width="100.22" height="38.99" style="opacity:0.2"></rect><rect x="253.11" y="214.72" width="33.68" height="38.99" transform="translate(539.9 468.43) rotate(180)" style="opacity:0.2"></rect><path d="M255.43,251c2.49-2.78,5-5.56,7.41-8.35l7.31-8.38,7.21-8.43c2.4-2.81,4.76-5.63,7.11-8.46q-3.75,4.16-7.42,8.34l-7.3,8.39-7.22,8.42Q258.95,246.78,255.43,251Z" style="fill:#F9C920"></path><path d="M255.43,217.41q3.51,4.25,7.1,8.46l7.22,8.43,7.3,8.38q3.68,4.19,7.42,8.35c-2.35-2.83-4.71-5.66-7.11-8.47l-7.21-8.42-7.31-8.39C260.4,223,257.92,220.18,255.43,217.41Z" style="fill:#F9C920"></path><rect x="264.77" y="214.72" width="10.23" height="9.13" style="fill:#ebebeb"></rect><rect x="337.3" y="241.38" width="0.55" height="7.75" style="fill:#263238"></rect><rect x="338.62" y="241.38" width="0.55" height="7.75" style="fill:#263238"></rect><rect x="339.93" y="241.38" width="0.55" height="7.75" style="fill:#263238"></rect><rect x="341.25" y="241.38" width="0.55" height="7.75" style="fill:#263238"></rect><rect x="342.57" y="241.38" width="0.55" height="7.75" style="fill:#263238"></rect><rect x="343.89" y="241.38" width="0.55" height="7.75" style="fill:#263238"></rect><rect x="345.21" y="241.38" width="0.55" height="7.75" style="fill:#263238"></rect><rect x="346.53" y="241.38" width="0.55" height="7.75" style="fill:#263238"></rect><rect x="347.84" y="241.38" width="0.55" height="7.75" style="fill:#263238"></rect><path d="M331.9,248.54l2.12.58h-5l2.11-.59v-2.85c-1.51-.2-2.11-1.69-2.11-4.3h5c0,2.6-.6,4.1-2.12,4.3Z" style="fill:#263238"></path><polygon points="327.9 245.33 326.61 245.33 326.61 249.12 323.29 249.12 323.29 245.33 321.99 245.33 324.95 241.38 327.9 245.33" style="fill:#263238"></polygon><polygon points="353.33 253.71 353.33 248.88 286.79 239.92 286.79 253.71 353.33 253.71" style="opacity:0.1"></polygon><polygon points="243.1 204.97 276.79 204.97 286.79 214.72 253.1 214.72 243.1 204.97" style="fill:#F9C920"></polygon><polygon points="243.1 204.97 276.79 204.97 286.79 214.72 253.1 214.72 243.1 204.97" style="opacity:0.2"></polygon><polygon points="363.33 204.97 329.64 204.97 319.64 214.72 353.33 214.72 363.33 204.97" style="fill:#F9C920"></polygon><polygon points="363.33 204.97 329.64 204.97 319.64 214.72 353.33 214.72 363.33 204.97" style="opacity:0.1"></polygon><path d="M190.91,170.87c-14.81,10.15-54.63,51.46-47.38,62.38s61.12,10.39,77,6.74c4.73-1.08-5.58-31.38-10.47-33.12-4.08-1.45-27.66,3.57-28,2.2-.39-1.55,6.46-9.4,15.76-26.85C208.55,162.1,197.46,166.39,190.91,170.87Z" style="fill: rgb(235, 148, 129);"></path><path d="M233.26,203c10.72.87,13.34,2.74,22.78-1.34,6.19-2.67,10.56.14,6.15,5.6-7.21,8.92-21.28,10.71-26.34,9.92Z" style="fill: rgb(235, 148, 129);"></path><path d="M203.41,206.85s13.13-3.89,24.65-4.09c8-.14,25.32,1.48,37.77,21.74,2.95,4.8,3.75,13.74-3.92,7.65-5.45-4.34-7.6-8.73-11.23-10.67,0,0-.33,11.49-5.26,14.26a103.27,103.27,0,0,1-13.4,6.32,21,21,0,0,1-1.4-2.4s-4.85,2.15-12.52-.34Z" style="fill: rgb(235, 148, 129);"></path><path d="M235.68,203.84c3.19,2.69,9.87,8.5,13.67,15.15,4.23,7.39,10.38,22.77,4.89,25.83-4,2.25-6.89-3.42-6.89-3.42s1.21,6.9-2.87,8.13c-3.72,1.13-5.67-3.39-5.67-3.39s0,4.31-3.78,4.7c-4.56.47-3.83-8.63-8.86-12.14C225,237.92,235.68,203.84,235.68,203.84Z" style="fill: rgb(235, 148, 129);"></path><path d="M240.8,222.16c2.59,3,6.71,11.39,6.65,19.09,0,.18-.14.27-.17.11a83.52,83.52,0,0,0-6.55-19.17S240.77,222.12,240.8,222.16Z" style="fill:#263238"></path><path d="M233.46,226.64c2,2.84,5.83,11.65,5.5,19.46,0,.17-.15.26-.17.1a89.77,89.77,0,0,0-5.4-19.53S233.44,226.6,233.46,226.64Z" style="fill:#263238"></path><path d="M250.7,221.41c3.17,1.75,5,3.91,7.42,6.53a49,49,0,0,0,3.75,3.74c1.21,1,3,2.63,4.73,1.79a2.86,2.86,0,0,0,1.24-2.63,7.64,7.64,0,0,0-.58-3.2s.07-.09.09,0a10.08,10.08,0,0,1,.85,2.82,4.56,4.56,0,0,1-.29,2.71c-.91,1.76-3.17,1.52-4.61.65a14.37,14.37,0,0,1-2.38-1.88c-.72-.65-1.41-1.34-2.07-2.05-1.37-1.45-2.65-3-4-4.43a43.42,43.42,0,0,0-4.22-3.91C250.57,221.47,250.64,221.38,250.7,221.41Z" style="fill:#263238"></path><path d="M255.14,234.92a106.27,106.27,0,0,0-4.53-13.44.05.05,0,1,1,.09,0c2.08,3.09,4.85,10.68,5.36,13s1,5.26.51,7.61c-.78,3.54-3.28,3.69-4.19,3.67a4.73,4.73,0,0,1-2.9-1.17,9.36,9.36,0,0,1-2.16-3.17c0-.06.05-.11.08,0,.92,1.66,2.65,3.5,4.63,3.67a3.26,3.26,0,0,0,2.45-.69,4.25,4.25,0,0,0,1.2-2.73A19.61,19.61,0,0,0,255.14,234.92Z" style="fill:#263238"></path><path d="M239,246.1c.4.53,1.09,2.23,2.63,2.9a3.78,3.78,0,0,0,3.49,0,4.75,4.75,0,0,0,2-2.94,30.52,30.52,0,0,0,.25-4.62c0-.07.09-.09.1,0a17,17,0,0,1,0,5,4.91,4.91,0,0,1-2.14,3.22,3.71,3.71,0,0,1-3.88-.05,7.67,7.67,0,0,1-2.58-3.49S238.94,246.08,239,246.1Z" style="fill:#263238"></path><path d="M226.64,238.14a8.57,8.57,0,0,1,1.22,1.6c.39.59.76,1.2,1.12,1.81a20.48,20.48,0,0,1,1.7,3.9,10.62,10.62,0,0,0,1.79,3.94,3.4,3.4,0,0,0,3.85,1,3.28,3.28,0,0,0,1.61-1.53,6.37,6.37,0,0,0,.77-2.36,0,0,0,1,1,.09,0,11.09,11.09,0,0,1-.31,2.23,4,4,0,0,1-1.11,1.71,3.79,3.79,0,0,1-3.92.55,5.63,5.63,0,0,1-2.79-3.34c-.59-1.54-1-3.13-1.68-4.64-.35-.8-.69-1.6-1.09-2.37s-1-1.56-1.35-2.38C226.51,238.16,226.58,238.09,226.64,238.14Z" style="fill:#263238"></path><path d="M221.83,240.24a31.07,31.07,0,0,0,6,.09c.07,0,.11.18.05.2a14.25,14.25,0,0,1-3,.3,10.57,10.57,0,0,1-3-.48C221.76,240.33,221.76,240.23,221.83,240.24Z" style="fill:#263238"></path><path d="M201.68,206.31l11.24,36.41s-67.7,3.53-70.88-10.8,33.83-51,47.15-60.51,16.14-3.57,11.1,6.93-17.34,30.43-17,30.46S201.68,206.31,201.68,206.31Z" style="fill:#F9C920"></path><path d="M201.71,206.24a98.41,98.41,0,0,0-17.08,2.41,150.13,150.13,0,0,0-16.69,4.54c-3.14,1.07-6.18,2.29-9.26,3.51-.11,0,0,.19.08.16,2.77-1,5.61-1.75,8.41-2.59s5.51-1.56,8.28-2.27c5.54-1.43,11.15-2.62,16.79-3.62,3.17-.57,6.34-1.09,9.5-1.72A.21.21,0,0,0,201.71,206.24Z" style="fill:#263238"></path><path d="M200.81,236.56c-.28-1.19-.51-2.39-.81-3.58q-.93-3.71-1.88-7.41t-1.93-7.4c-.66-2.46-1.42-4.91-2-7.38a.09.09,0,0,0-.18,0c.51,2.5.92,5,1.46,7.5s1.14,5.07,1.78,7.58,1.3,4.93,2,7.38c.35,1.23.78,2.44,1.17,3.66s.71,2.37,1.17,3.52c0,.08.15,0,.14,0C201.46,239.12,201.1,237.85,200.81,236.56Z" style="fill:#263238"></path><path d="M213.47,243.3c-.14-.57-.27-1.14-.41-1.71,0-.19-.37-.19-.35,0,0,.47,0,.94.07,1.41-3.79-.16-7.61.06-11.41.09s-7.87,0-11.8-.09c-7.76-.21-15.5-.75-23.21-1.67-4.41-.53-8.78-1.27-13.17-1.88-.12,0-.16.17-.05.2,7.57,2.09,15.52,3,23.32,3.57s15.7.83,23.57.83a123.29,123.29,0,0,0,13.18-.37A.34.34,0,0,0,213.47,243.3Z" style="fill:#263238"></path><path d="M192.89,194.47c-.7.79-1.41,1.58-2,2.43-.15.2-.28.39-.42.59,1.2-2.28,2.34-4.59,3.49-6.9,0-.06-.08-.12-.11-.06-2,3.24-4.05,6.41-6,9.7-.92,1.6-1.83,3.22-2.74,4.83-.47.83-1,1.65-1.4,2.49a7.07,7.07,0,0,0-1,2.28c0,.08.09.11.15.07a7.08,7.08,0,0,0,1.54-2.07c.51-.8,1-1.61,1.49-2.42q1.47-2.44,2.9-4.9l.68-1.24c.58-.69,1.16-1.37,1.72-2.08s1.23-1.74,1.81-2.64C193,194.5,192.94,194.42,192.89,194.47Z" style="fill:#263238"></path><path d="M208.36,183.79s-8.86-12.74-16-13.85l-7,4.18s-2.09.27-2.46-1.1c-.91-3.37.21-10.88,7.55-14.49,6.72-3.31,18.6-.1,26.21,3.54,7.32,3.51,10.7,8.85,7.37,13.42S208.36,183.79,208.36,183.79Z" style="fill:#F9C920"></path><path d="M209.59,181.57s-5.91-16.45-16.54-20l-.65,8.37s6.5,1.26,16,13.85Z" style="fill:#F9C920"></path><path d="M189.43,169.53a14.22,14.22,0,0,1,5.7,1.91A25.6,25.6,0,0,1,200,175a47.8,47.8,0,0,1,4.24,4.3l1.91,2.35,1.81,2.44.2.28.3-.09a52,52,0,0,0,6.56-2.42,28.45,28.45,0,0,0,3.11-1.59,17.66,17.66,0,0,0,2.85-2,31.5,31.5,0,0,1-6.2,3c-1.07.41-2.16.77-3.26,1.12s-2.2.68-3.3,1l.51.18L207,181c-.64-.81-1.29-1.61-1.94-2.4s-1.39-1.53-2.12-2.26-1.48-1.44-2.3-2.07a24,24,0,0,0-5.2-3.36c-.46-.23-.95-.41-1.42-.61s-1-.33-1.49-.45A9,9,0,0,0,189.43,169.53Z" style="fill:#263238"></path><path d="M185.39,174.12a31.06,31.06,0,0,0,3.63-1.87,29.67,29.67,0,0,0,3.38-2.31,29.65,29.65,0,0,0-3.63,1.88A29.18,29.18,0,0,0,185.39,174.12Z" style="fill:#263238"></path><path d="M205.34,178.79a61.7,61.7,0,0,0-3.91,9.82c-.73,2.35-2.25,11.09.47,11.54s0-6.26.53-11,2.67-7.62,3.6-10.25Z" style="fill:#F9C920"></path><g style="opacity:0.1"><path d="M205.34,178.79a61.7,61.7,0,0,0-3.91,9.82c-.73,2.35-2.25,11.09.47,11.54s0-6.26.53-11,2.67-7.62,3.6-10.25Z"></path></g><path d="M213.68,180.36a54.91,54.91,0,0,1,2,9.37c.29,2.22.28,10.26-2.21,10.24s1-5.59,1.22-9.86-1.19-7.23-1.61-9.72Z" style="fill:#F9C920"></path><g style="opacity:0.1"><path d="M213.68,180.36a54.91,54.91,0,0,1,2,9.37c.29,2.22.28,10.26-2.21,10.24s1-5.59,1.22-9.86-1.19-7.23-1.61-9.72Z"></path></g><path d="M209.59,181.57s10-4.62,11.66-8.19-5.17-8.57-9.74-10.89c-7.08-3.6-12.27-4.09-17.22-.9S209.59,181.57,209.59,181.57Z" style="opacity:0.1"></path><path d="M211.35,180.61c-4,.22-9.62-6.86-11.39-12.11-.12-.36,3.58-13.24,4-15.86.1-.54,15.79,6.94,15.79,6.94a42.47,42.47,0,0,0-3.39,9.8C216.34,169.76,215.24,180.39,211.35,180.61Z" style="fill: rgb(235, 148, 129);"></path><path d="M219.8,159.57h0l-.42.88c-.38.84-1,2.22-1.55,3.8a30.66,30.66,0,0,0-1.41,5.12c0,.12,0,.25-.06.36v.06c0,.22-.06.51-.11.85a11.07,11.07,0,0,1-1.62-.19c-8.94-1.81-10-13.36-10.09-17.74a1.9,1.9,0,0,1,.28.1c.42.14,1,.37,1.63.64l.51.22c1.06.45,2.31,1,3.61,1.59.43.19.86.38,1.3.59l2.74,1.26c.37.19.75.36,1.1.52l1.11.52.52.24.24.11,1.3.62.62.29.26.13,0,0Z" style="fill:#263238"></path><path d="M206.21,132.77c-3.2,5.32-4.3,22.71-1.13,27.44,4.61,6.86,14.21,9.8,20.57,3.8,6.16-5.81,7.2-28.5,3.46-33C223.6,124.35,210.93,124.91,206.21,132.77Z" style="fill: rgb(235, 148, 129);"></path><path d="M220.52,146.55s-.1,0-.1.1c0,1.18-.21,2.54-1.3,2.89,0,0,0,.07,0,.07C220.44,149.47,220.7,147.67,220.52,146.55Z" style="fill:#263238"></path><path d="M219.51,145.28c-1.9-.22-2.19,3.59-.44,3.79S221.1,145.46,219.51,145.28Z" style="fill:#263238"></path><path d="M227,147.14s.09.06.09.11c-.13,1.18-.08,2.54,1,3,0,0,0,.07,0,.06C226.74,150.05,226.69,148.23,227,147.14Z" style="fill:#263238"></path><path d="M228.15,146c1.91,0,1.76,3.82,0,3.81S226.55,146,228.15,146Z" style="fill:#263238"></path><path d="M218.14,143.42a15.23,15.23,0,0,0,1.51-.4,2.65,2.65,0,0,0,1.47-.71.81.81,0,0,0-.06-1,2,2,0,0,0-2-.36,3,3,0,0,0-1.79,1.14A.86.86,0,0,0,218.14,143.42Z" style="fill:#263238"></path><path d="M229.88,142.92a12.93,12.93,0,0,1-1.48-.51,2.5,2.5,0,0,1-1.41-.8.82.82,0,0,1,.12-1,2,2,0,0,1,2-.22,2.9,2.9,0,0,1,1.71,1.25A.86.86,0,0,1,229.88,142.92Z" style="fill:#263238"></path><path d="M218.11,157.41c.26.3.51.7.94.77a3,3,0,0,0,1.29-.2,0,0,0,0,1,0,.07,1.57,1.57,0,0,1-1.54.52,1.24,1.24,0,0,1-.85-1.11C218,157.39,218.07,157.37,218.11,157.41Z" style="fill:#263238"></path><path d="M219.62,154a4,4,0,0,0,2.54,2,5.31,5.31,0,0,0,1.44.18h.28l.26,0a.31.31,0,0,0,.26-.25h0a.53.53,0,0,0,0-.12h0v-.1c.1-.91.11-2.29.11-2.29.32.19,2,1.08,2,.6a60.86,60.86,0,0,0-.63-12.27.11.11,0,0,0-.21,0c-.22,3.79.23,7.59.08,11.39a7.57,7.57,0,0,0-1.85-.72c-.14,0,0,2.68-.07,3.09a.1.1,0,0,1,0,0,5.55,5.55,0,0,1-4-1.61C219.65,153.81,219.56,153.88,219.62,154Z" style="fill:#263238"></path><path d="M223.1,155.65a4.82,4.82,0,0,1-2,1.33,2.17,2.17,0,0,1-1.31,0c-.92-.32-.88-1.19-.65-1.91a5.23,5.23,0,0,1,.51-1.1A6.23,6.23,0,0,0,223.1,155.65Z" style="fill:#263238"></path><path d="M221.08,157a2.17,2.17,0,0,1-1.31,0c-.92-.32-.88-1.19-.65-1.91A2.22,2.22,0,0,1,221.08,157Z" style="fill:#ff9bbc"></path><path d="M203.15,148.36c-.27-1.61-2.55-18.86-1.91-20.65.58-1.63,2.34-.76,2.37-.85s.25-1.61,1.26-2.08a2.56,2.56,0,0,1,2,.25s.45-1.58,1.51-1.91a2.06,2.06,0,0,1,1.93.64,2.68,2.68,0,0,1,1.81-1.75A1.74,1.74,0,0,1,214,123s.59-1.48,1.67-1.67,1.88,1,1.88,1a2.34,2.34,0,0,1,2-1.22c1.3.12,1.63,1.57,1.63,1.57a2.77,2.77,0,0,1,2.1-1.18c1.21.09,1.47,1.63,1.47,1.63s.63-1.28,1.75-1.08,1.23,1.82,1.23,1.82.38-1.52,1.66-1c2,.88,1.62,10.79,1.64,15.08,0,0-.36-2.09-1.21-2.25s-1.66,1.14-3.31,1.33c-2.36.27-5.91-2.83-9.15-2.48s-5.78,3.34-7.4,8.07C208.18,148,203.81,152.18,203.15,148.36Z" style="fill:#263238"></path><path d="M207.47,147.24s-2.55-6.27-5.31-5.48-1.71,9.27.93,11a3,3,0,0,0,4.29-.68Z" style="fill: rgb(235, 148, 129);"></path><path d="M202.52,144.18a0,0,0,0,0,0,.08c1.84,1.27,2.47,3.39,2.77,5.5a1.66,1.66,0,0,0-2.32-1c-.06,0,0,.12,0,.12a1.86,1.86,0,0,1,1.85,1.08,9.41,9.41,0,0,1,.58,1.82c0,.2.4.18.38,0v-.05C206.41,149.13,205.23,145.07,202.52,144.18Z" style="fill:#263238"></path></g><g id="freepik--speech-bubble--inject-226"><path d="M289.46,114A24.07,24.07,0,0,1,251,133.29l-11.8,3,4.91-11A24.08,24.08,0,1,1,289.46,114Z" style="fill:#fffefd"></path><path d="M289.46,114a24.33,24.33,0,0,1-3.57,12.65,28.19,28.19,0,0,1-1.9,2.72,26.19,26.19,0,0,1-2.31,2.4,23.54,23.54,0,0,1-5.44,3.83,24.31,24.31,0,0,1-6.28,2.21,23.16,23.16,0,0,1-3.32.41,20.82,20.82,0,0,1-3.35,0,24.33,24.33,0,0,1-12.47-4.6l.31.06-11.78,3.09-.88.23.37-.84,4.87-11,0,.43A24.36,24.36,0,0,1,243,104a24.77,24.77,0,0,1,6.67-8.77A24.33,24.33,0,0,1,289.46,114Zm0,0a23.92,23.92,0,0,0-19.13-23.38,24,24,0,0,0-20.21,5.26,24.88,24.88,0,0,0-6.34,8.56,23.69,23.69,0,0,0,.8,20.69l.11.21-.1.22-5,11-.51-.6L251,132.94l.17,0,.13.1a23.58,23.58,0,0,0,12.08,4.71,20.07,20.07,0,0,0,3.29.06,24,24,0,0,0,3.27-.35,23.79,23.79,0,0,0,6.25-2.07,22.49,22.49,0,0,0,5.45-3.72,27.22,27.22,0,0,0,2.31-2.37,28.12,28.12,0,0,0,1.92-2.7A24.33,24.33,0,0,0,289.46,114Z" style="fill:#263238"></path><path d="M274.76,115a2.12,2.12,0,1,0,2.11-2.12A2.11,2.11,0,0,0,274.76,115Z" style="fill:#263238"></path><path d="M263.64,115a2.12,2.12,0,1,0,2.11-2.12A2.12,2.12,0,0,0,263.64,115Z" style="fill:#263238"></path><path d="M252.52,115a2.12,2.12,0,1,0,2.12-2.12A2.12,2.12,0,0,0,252.52,115Z" style="fill:#263238"></path></g><g id="freepik--Desk--inject-226"><rect x="81.6" y="253.71" width="336.8" height="12.3" transform="translate(500 519.73) rotate(180)" style="fill:#37474f"></rect><rect x="93.66" y="266.02" width="312.69" height="12.3" transform="translate(500 544.34) rotate(180)" style="fill:#455a64"></rect><polygon points="406.32 450.96 411.16 450.96 397.07 278.32 384.71 278.32 406.32 450.96" style="fill:#455a64"></polygon><polygon points="384.71 278.32 386.16 289.88 398.01 289.88 397.07 278.32 384.71 278.32" style="fill:#263238"></polygon><polygon points="93.68 450.96 88.84 450.96 102.93 278.32 115.29 278.32 93.68 450.96" style="fill:#455a64"></polygon><polygon points="115.29 278.32 113.84 289.88 101.99 289.88 102.93 278.32 115.29 278.32" style="fill:#263238"></polygon></g></svg>